<?xml version="1.0" standalone="no"?>
<!DOCTYPE svg PUBLIC "-//W3C//DTD SVG 20010904//EN"
 "http://www.w3.org/TR/2001/REC-SVG-20010904/DTD/svg10.dtd">
<svg version="1.0" xmlns="http://www.w3.org/2000/svg"
 width="260.000000pt" height="260.000000pt" viewBox="0 0 260.000000 260.000000"
 preserveAspectRatio="xMidYMid meet">
<metadata>
Created by potrace 1.11, written by Peter Selinger 2001-2013
</metadata>
<g transform="translate(0.000000,260.000000) scale(0.100000,-0.100000)"
fill="#000000" stroke="none">
<path d="M70 1815 l0 -735 225 0 225 0 0 -235 0 -235 225 0 225 0 0 -235 0
-235 695 0 695 0 0 725 0 725 -215 0 -215 0 0 245 0 245 -225 0 -225 0 0 235
0 235 -705 0 -705 0 0 -735z m1200 390 l0 -125 -380 0 -380 0 0 -410 0 -410
-125 0 -125 0 0 535 0 535 505 0 505 0 0 -125z m460 -475 l0 -130 -380 0 -380
0 0 -400 0 -400 -130 0 -130 0 0 530 0 530 510 0 510 0 0 -130z m460 -860 l0
-530 -520 0 -520 0 0 530 0 530 520 0 520 0 0 -530z"/>
</g>
</svg>
